# Generated by Visualization Toolkit
v -0.015336000360548496 -0.0017089999746531248 0.0050200000405311584
v -0.014888999983668327 -0.004263000097125769 0.007677000015974045
v -0.017534000799059868 -0.005772999953478575 0.0016720000421628356
v -0.016408000141382217 -0.0009159999899566174 -0.0011399999493733048
v -0.008588000200688839 0.00036299999919719994 0.016332000494003296
v -0.009812000207602978 0.008402000181376934 0.00903400033712387
v -0.015134000219404697 -0.009391999803483486 0.0064690001308918
v -0.008108999580144882 -0.002377999946475029 0.019176000729203224
v -0.016145000234246254 -0.01116000022739172 0.000750000006519258
v -0.01689399965107441 -0.008736999705433846 -0.0036319999489933252
v -0.017212999984622 -0.00430600019171834 -0.005621000193059444
v -0.01183400023728609 0.00648899981752038 -0.002471999963745475
v -0.0018189999973401427 0.00595800019800663 0.018557999283075333
v -0.0018489999929443002 0.0007089999853633344 0.01858000084757805
v -0.0024029999040067196 0.009072000160813332 0.015097999945282936
v -0.004040000028908253 0.008542000316083431 0.005741000175476074
v -0.008155999705195427 -0.0103150000795722 0.019209999591112137
v -0.00950899999588728 -0.01384000014513731 0.01159099955111742
v -0.011753000319004059 -0.011068999767303467 -0.0013500000350177288
v -0.012790000066161156 -0.0044639999978244305 -0.007534999866038561
v -0.013199999928474426 0.0009030000073835254 -0.010083000175654888
v -0.006053000222891569 0.006568000186234713 -0.005702999886125326
v 0.004224000032991171 0.01054100040346384 0.016662999987602234
v 0.004404000006616116 0.008107000030577183 0.017781000584363937
v -0.00145800004247576 -0.00790799967944622 0.02114100009202957
v 0.004364999942481518 0.0013569999719038606 0.017810000106692314
v 0.004701000172644854 -0.003949000034481287 0.01992500014603138
v 0.0027860000263899565 0.00926399976015091 0.00848000030964613
v 0.0010969999711960554 0.009358000010251999 -0.0011859999503940344
v -0.002951999893411994 -0.009809999726712704 0.012652999721467495
v -0.003984000068157911 -0.009891999885439873 0.006742999888956547
v -0.005342999938875437 -0.00635500019416213 -0.0011530000483617187
v -0.006901999935507774 -0.002759000053629279 -0.010219000279903412
v -0.007451000157743692 -0.000893999997060746 -0.013429000042378902
v -0.007311999797821045 0.002795000094920397 -0.012765999883413315
v -0.0011129999766126275 0.006380999926477671 -0.0137339998036623
v -0.0009640000062063336 0.011757999658584595 -0.013079999946057796
v -0.0002840000088326633 0.0122079998254776 -0.009202999994158745
v 0.010816000401973724 0.01319700013846159 0.017976999282836914
v 0.011067000217735767 0.008326999843120575 0.019596999511122704
v 0.009371999651193619 0.012608000077307224 0.009728999808430672
v 0.010820000432431698 0.0010110000148415565 0.018458999693393707
v 0.004377000033855438 -0.007953999564051628 0.018218999728560448
v 0.009789999574422836 -0.0007580000092275441 0.012617000378668308
v 0.008875000290572643 -0.006587000098079443 0.007592999842017889
v 0.00784400012344122 0.010954000055789948 0.001053999993018806
v 0.006297000218182802 0.013113000430166721 -0.007880999706685543
v 0.0024900001008063555 -0.006676000077277422 0.00737700005993247
v 0.001319000031799078 -0.004635999910533428 0.0005959999980404973
v 0.000019999999494757503 -0.008159000426530838 -0.0067159999161958694
v -0.00108299998100847 -0.009116999804973602 -0.012990999966859818
v -0.0013200000394135714 -0.007122000213712454 -0.014415999874472618
v -0.0008789999992586672 -0.0016139999497681856 -0.01209999993443489
v 0.004586999770253897 -0.00216599996201694 -0.017111999914050102
v 0.004393000155687332 0.005266000051051378 -0.018498999997973442
v 0.00455900002270937 0.013894000090658665 -0.01785999909043312
v 0.016814999282360077 0.00990500021725893 0.01611500047147274
v 0.0173530001193285 0.006289999932050705 0.01933100074529648
v 0.017450999468564987 -0.0008950000046752393 0.020161999389529228
v 0.00812199991196394 -0.008225999772548676 0.0033519999124109745
v 0.01613599993288517 -0.00710600009188056 0.012861000373959541
v 0.013559999875724316 0.01065600011497736 -0.0025430000387132168
v 0.011494000442326069 0.012555000372231007 -0.014433999545872211
v 0.006424999795854092 -0.009819000028073788 -0.006306999828666449
v 0.004807999823242426 -0.016224000602960587 -0.015331000089645386
v 0.0040270001627504826 -0.013425000011920929 -0.019897999241948128
v 0.003969000186771154 -0.008551999926567078 -0.020409999415278435
v 0.01143100019544363 -0.002193999942392111 -0.014248999767005444
v 0.011222999542951584 0.0008650000090710819 -0.015553999692201614
v 0.01097899954766035 0.007108999881893396 -0.01718199998140335
v 0.011171000078320503 0.012550000101327896 -0.016280999407172203
v 0.02274399995803833 0.006111000198870897 0.01388499978929758
v 0.020858999341726303 0.007387999910861254 0.003043999895453453
v 0.022406000643968582 0.0071669998578727245 0.01191100012511015
v 0.023483000695705414 -0.002124000107869506 0.018414000049233437
v 0.02341499924659729 -0.006312999874353409 0.018185999244451523
v 0.015589999966323376 -0.010240999981760979 0.009858000092208385
v 0.014124000445008278 -0.007267999928444624 0.0013500000350177288
v 0.022779999300837517 -0.00838600005954504 0.01462399959564209
v 0.022242000326514244 -0.008646000176668167 0.011547000147402287
v 0.01888200081884861 0.007664999924600124 -0.00828499998897314
v 0.018275000154972076 0.006965000182390213 -0.011730000376701355
v 0.012082000263035297 -0.006680999882519245 -0.010351999662816525
v 0.011013999581336975 -0.007763000205159187 -0.016441000625491142
v 0.011146999895572662 -0.005011000204831362 -0.015775000676512718
v 0.017952000722289085 -0.004538999870419502 -0.013159000314772129
v 0.018188999965786934 -0.002471999963745475 -0.011876000091433525
v 0.018252000212669373 0.0031530000269412994 -0.011714999563992023
v 0.02856599912047386 0.003877999959513545 0.01097199972718954
v 0.0263069998472929 0.005710000172257423 -0.0020260000601410866
v 0.027208000421524048 -0.004271000158041716 0.003496000077575445
v 0.021712999790906906 -0.0107810003682971 0.00860000029206276
v 0.020847000181674957 -0.009610000066459179 0.003607999999076128
v 0.025728000327944756 0.0024510000366717577 -0.00521400012075901
v 0.01854100078344345 -0.006527000106871128 -0.009704000316560268
v 0.018139999359846115 -0.007222000043839216 -0.011978999711573124
v 0.024664999917149544 -0.0010689999908208847 -0.01117200031876564
v 0.028606999665498734 -0.002346999943256378 0.0023560000117868185
v 0.02717299945652485 -0.0009360000258311629 -0.005898999981582165
vn -0.8899747133255005 0.310136616230011 0.3343057930469513
vn -0.8861277103424072 0.14205026626586914 0.44113439321517944
vn -0.9842799305915833 0.01104988157749176 0.1762693077325821
vn -0.9132912158966064 0.40388891100883484 0.052658189088106155
vn -0.6656110882759094 0.37093520164489746 0.6475870013237
vn -0.6455367803573608 0.7052600383758545 0.2930707335472107
vn -0.8753644227981567 -0.2624357044696808 0.4060353636741638
vn -0.6437163352966309 0.21490858495235443 0.7344680428504944
vn -0.6999103426933289 -0.7141033411026001 -0.013489003293216228
vn -0.6314843893051147 -0.5794918537139893 -0.515186071395874
vn -0.8985192179679871 0.055505864322185516 -0.43541041016578674
vn -0.568393349647522 0.7928676009178162 -0.21974961459636688
vn -0.3074731230735779 0.3935219645500183 0.8663721680641174
vn -0.06751859188079834 0.21051935851573944 0.9752552509307861
vn -0.2627685070037842 0.9355202317237854 0.23612435162067413
vn -0.12771622836589813 0.9887306094169617 -0.07810477167367935
vn -0.449121356010437 -0.3108871281147003 0.8376390933990479
vn 0.01312470156699419 -0.9934327006340027 0.11366277188062668
vn 0.17263263463974 -0.8567513823509216 -0.4859783351421356
vn -0.24312937259674072 -0.6027130484580994 -0.7600165605545044
vn -0.6132099628448486 0.30242377519607544 -0.7297351360321045
vn -0.5172997117042542 0.8258190751075745 -0.22455275058746338
vn -0.32177722454071045 0.7764537930488586 0.5418292284011841
vn -0.06823252141475677 0.116728775203228 0.9908171892166138
vn 0.20374011993408203 -0.5949414968490601 0.7775182723999023
vn 0.30043891072273254 -0.2293509542942047 0.9258157014846802
vn 0.5726921558380127 0.0539863258600235 0.8179908990859985
vn -0.256521075963974 0.9657382965087891 -0.03932509198784828
vn -0.29065966606140137 0.9423574805259705 0.1657687872648239
vn 0.3981684744358063 -0.9173077344894409 -0.0029024339746683836
vn 0.4576101303100586 -0.8477877378463745 -0.268046498298645
vn 0.24111133813858032 -0.9383481740951538 -0.24772542715072632
vn -0.29371216893196106 -0.7704668045043945 -0.5657863020896912
vn -0.20926810801029205 -0.38741177320480347 -0.897841215133667
vn -0.4578586220741272 0.547909677028656 -0.7001146078109741
vn -0.5617520213127136 0.1082877442240715 -0.8201881051063538
vn -0.7569876909255981 0.44797512888908386 -0.47569724917411804
vn -0.4078558385372162 0.8967872858047485 0.17154045403003693
vn 0.06962218880653381 0.8277117013931274 0.5568177700042725
vn -0.025507858023047447 0.24714750051498413 0.9686420559883118
vn -0.06697314232587814 0.9903008937835693 -0.12173187732696533
vn -0.19754348695278168 -0.3973229229450226 0.89616459608078
vn 0.4395730197429657 -0.8572787046432495 0.2680463194847107
vn -0.1857469230890274 -0.819476306438446 0.5421775579452515
vn 0.14180627465248108 -0.8100504279136658 0.5689545273780823
vn -0.0415753610432148 0.9983876347541809 0.038650255650281906
vn -0.012394268997013569 0.9820011854171753 0.1884678304195404
vn 0.15900081396102905 -0.9827203154563904 -0.09476054459810257
vn -0.05172913894057274 -0.9983252286911011 0.025897851213812828
vn -0.4117225408554077 -0.858875572681427 0.304659366607666
vn -0.7946168184280396 -0.5905101299285889 -0.14100304245948792
vn -0.7356981039047241 -0.04030459001660347 -0.676109254360199
vn -0.4293377101421356 -0.017921235412359238 -0.9029662609100342
vn -0.188284769654274 -0.0035222761798650026 -0.9821081757545471
vn -0.2363937646150589 -0.0587846003472805 -0.9698775410652161
vn -0.08207502216100693 0.8443365693092346 -0.5294897556304932
vn 0.4640294909477234 0.8511342406272888 0.2454528659582138
vn 0.29178279638290405 0.3235152065753937 0.9001114964485168
vn -0.2574900984764099 -0.41852501034736633 0.8709395527839661
vn -0.26901957392692566 -0.9446563124656677 0.1877579540014267
vn -0.3610933721065521 -0.7594382762908936 0.5411701798439026
vn 0.32141122221946716 0.9456484913825989 0.04943539947271347
vn 0.4290440082550049 0.9025391936302185 -0.036664046347141266
vn 0.045154184103012085 -0.9487157464027405 0.31288906931877136
vn 0.10046941041946411 -0.987746000289917 0.11942999064922333
vn -0.21768638491630554 -0.3790322244167328 -0.8994149565696716
vn -0.1578799933195114 0.29553768038749695 -0.9421949982643127
vn 0.3507677912712097 0.18465091288089752 -0.9180773496627808
vn 0.37181517481803894 -0.21659968793392181 -0.9026838541030884
vn 0.41249895095825195 -0.018782686442136765 -0.9107643961906433
vn 0.5309087634086609 0.6104998588562012 -0.587729275226593
vn 0.5856291055679321 0.6154307126998901 0.5275259613990784
vn 0.36794474720954895 0.9290522933006287 -0.038450226187705994
vn 0.45683813095092773 0.8805931806564331 0.12591516971588135
vn 0.5532668232917786 0.18493236601352692 0.812216579914093
vn 0.4953405261039734 -0.5443823933601379 0.6769677400588989
vn -0.18700073659420013 -0.9585090279579163 0.2151535004377365
vn 0.019260425120592117 -0.9916524887084961 -0.1274925023317337
vn 0.2899716794490814 -0.9300298094749451 0.22574549913406372
vn 0.29292935132980347 -0.8794795870780945 0.3751106560230255
vn 0.5613499283790588 0.8023360371589661 -0.20283721387386322
vn 0.7169036865234375 0.41828224062919617 -0.5577536225318909
vn 0.24481065571308136 -0.966689944267273 0.07468746602535248
vn 0.637039065361023 -0.4948529005050659 -0.5910177230834961
vn 0.41242268681526184 0.1414935290813446 -0.8999372124671936
vn 0.3030218183994293 0.16469329595565796 -0.9386447668075562
vn 0.30532753467559814 0.29861703515052795 -0.9042139649391174
vn 0.584993302822113 -0.03551362454891205 -0.8102601170539856
vn 0.9210991859436035 0.26311346888542175 0.2869625985622406
vn 0.6302118301391602 0.7361910343170166 -0.24668993055820465
vn 0.7857415676116943 -0.6185465455055237 0.0032363629434257746
vn 0.40627461671829224 -0.9086479544639587 0.0964350476861
vn 0.18753069639205933 -0.9518534541130066 -0.24250192940235138
vn 0.6406104564666748 0.4650757908821106 -0.6110014915466309
vn 0.36033347249031067 -0.9323059320449829 -0.031072333455085754
vn 0.4570801258087158 -0.7569310069084167 -0.4670472741127014
vn 0.7110387086868286 -0.3758161664009094 -0.5942946672439575
vn 0.8676279783248901 -0.48884183168411255 -0.09085917472839355
vn 0.93446946144104 0.100719153881073 -0.34150031208992004
f 3//3 2//2 1//1
f 3//3 1//1 4//4
f 1//1 2//2 5//5
f 1//1 5//5 6//6
f 4//4 1//1 6//6
f 3//3 7//7 2//2
f 2//2 8//8 5//5
f 2//2 7//7 8//8
f 3//3 9//9 7//7
f 3//3 10//10 9//9
f 3//3 11//11 10//10
f 3//3 4//4 11//11
f 11//11 4//4 12//12
f 4//4 6//6 12//12
f 6//6 5//5 13//13
f 5//5 14//14 13//13
f 5//5 8//8 14//14
f 6//6 13//13 15//15
f 12//12 6//6 16//16
f 6//6 15//15 16//16
f 7//7 17//17 8//8
f 7//7 18//18 17//17
f 7//7 9//9 18//18
f 8//8 17//17 14//14
f 9//9 19//19 18//18
f 9//9 10//10 19//19
f 10//10 20//20 19//19
f 10//10 11//11 20//20
f 11//11 21//21 20//20
f 11//11 12//12 21//21
f 21//21 12//12 22//22
f 12//12 16//16 22//22
f 15//15 13//13 23//23
f 13//13 24//24 23//23
f 13//13 14//14 24//24
f 17//17 25//25 14//14
f 14//14 26//26 24//24
f 14//14 27//27 26//26
f 14//14 25//25 27//27
f 16//16 15//15 28//28
f 15//15 23//23 28//28
f 22//22 16//16 29//29
f 16//16 28//28 29//29
f 17//17 18//18 25//25
f 18//18 30//30 25//25
f 18//18 31//31 30//30
f 18//18 19//19 31//31
f 19//19 32//32 31//31
f 19//19 33//33 32//32
f 19//19 20//20 33//33
f 20//20 34//34 33//33
f 20//20 21//21 34//34
f 21//21 35//35 34//34
f 21//21 22//22 35//35
f 35//35 22//22 36//36
f 22//22 37//37 36//36
f 22//22 38//38 37//37
f 22//22 29//29 38//38
f 23//23 40//40 39//39
f 23//23 24//24 40//40
f 28//28 23//23 41//41
f 23//23 39//39 41//41
f 24//24 42//42 40//40
f 24//24 26//26 42//42
f 25//25 43//43 27//27
f 25//25 30//30 43//43
f 26//26 44//44 42//42
f 26//26 45//45 44//44
f 26//26 27//27 45//45
f 27//27 43//43 45//45
f 29//29 28//28 46//46
f 28//28 41//41 46//46
f 38//38 29//29 47//47
f 29//29 46//46 47//47
f 30//30 48//48 43//43
f 30//30 31//31 48//48
f 31//31 49//49 48//48
f 31//31 32//32 49//49
f 32//32 50//50 49//49
f 32//32 33//33 50//50
f 33//33 51//51 50//50
f 33//33 52//52 51//51
f 33//33 53//53 52//52
f 33//33 34//34 53//53
f 34//34 36//36 53//53
f 34//34 35//35 36//36
f 53//53 36//36 54//54
f 36//36 55//55 54//54
f 36//36 37//37 55//55
f 37//37 56//56 55//55
f 37//37 38//38 56//56
f 38//38 47//47 56//56
f 39//39 40//40 57//57
f 41//41 39//39 57//57
f 40//40 58//58 57//57
f 40//40 42//42 58//58
f 46//46 41//41 57//57
f 42//42 59//59 58//58
f 42//42 44//44 59//59
f 43//43 48//48 45//45
f 44//44 45//45 59//59
f 48//48 60//60 45//45
f 45//45 61//61 59//59
f 45//45 60//60 61//61
f 47//47 46//46 62//62
f 46//46 57//57 62//62
f 56//56 47//47 63//63
f 47//47 62//62 63//63
f 48//48 49//49 60//60
f 49//49 64//64 60//60
f 49//49 50//50 64//64
f 50//50 65//65 64//64
f 50//50 51//51 65//65
f 51//51 66//66 65//65
f 51//51 52//52 66//66
f 52//52 67//67 66//66
f 52//52 53//53 67//67
f 53//53 54//54 67//67
f 67//67 54//54 68//68
f 54//54 69//69 68//68
f 54//54 55//55 69//69
f 55//55 70//70 69//69
f 55//55 56//56 70//70
f 56//56 71//71 70//70
f 56//56 63//63 71//71
f 57//57 58//58 72//72
f 62//62 57//57 73//73
f 57//57 74//74 73//73
f 57//57 72//72 74//74
f 58//58 75//75 72//72
f 58//58 59//59 75//75
f 59//59 76//76 75//75
f 59//59 61//61 76//76
f 60//60 77//77 61//61
f 60//60 78//78 77//77
f 60//60 64//64 78//78
f 61//61 79//79 76//76
f 61//61 80//80 79//79
f 61//61 77//77 80//80
f 63//63 62//62 81//81
f 62//62 73//73 81//81
f 71//71 63//63 82//82
f 63//63 81//81 82//82
f 64//64 83//83 78//78
f 64//64 65//65 83//83
f 65//65 84//84 83//83
f 65//65 66//66 84//84
f 66//66 85//85 84//84
f 66//66 67//67 85//85
f 67//67 68//68 85//85
f 85//85 68//68 86//86
f 68//68 87//87 86//86
f 68//68 69//69 87//87
f 69//69 88//88 87//87
f 69//69 70//70 88//88
f 70//70 82//82 88//88
f 70//70 71//71 82//82
f 72//72 75//75 89//89
f 74//74 72//72 89//89
f 81//81 73//73 90//90
f 73//73 74//74 90//90
f 74//74 89//89 90//90
f 75//75 76//76 89//89
f 76//76 91//91 89//89
f 76//76 79//79 91//91
f 77//77 92//92 80//80
f 77//77 93//93 92//92
f 77//77 78//78 93//93
f 78//78 83//83 93//93
f 79//79 80//80 91//91
f 80//80 92//92 91//91
f 82//82 81//81 94//94
f 81//81 90//90 94//94
f 88//88 82//82 94//94
f 83//83 95//95 93//93
f 83//83 96//96 95//95
f 83//83 84//84 96//96
f 84//84 85//85 96//96
f 85//85 86//86 96//96
f 96//96 86//86 97//97
f 86//86 87//87 97//97
f 87//87 94//94 97//97
f 87//87 88//88 94//94
f 89//89 91//91 98//98
f 90//90 89//89 99//99
f 89//89 98//98 99//99
f 94//94 90//90 99//99
f 92//92 93//93 91//91
f 93//93 97//97 91//91
f 91//91 97//97 98//98
f 93//93 95//95 97//97
f 97//97 94//94 99//99
f 95//95 96//96 97//97
f 97//97 99//99 98//98
